HIERARCHY
ROOT Hips
{
 OFFSET 0.000000 0.000000 0.000000
 CHANNELS 6 Xposition Yposition Zposition Yrotation Xrotation Zrotation
 JOINT Chest
 {
  OFFSET 0.000000 9.588913 -0.003946
  CHANNELS 3 Yrotation Xrotation Zrotation
  JOINT Chest2
  {
   OFFSET 0.000000 9.541882 0.008053
   CHANNELS 3 Yrotation Xrotation Zrotation
   JOINT Chest3
   {
    OFFSET 0.000000 9.501360 0.000000
    CHANNELS 3 Yrotation Xrotation Zrotation
    JOINT Chest4
    {
     OFFSET 0.000000 9.491660 0.000000
     CHANNELS 3 Yrotation Xrotation Zrotation
     JOINT Neck
     {
      OFFSET 0.000000 14.331917 0.000000
      CHANNELS 3 Yrotation Xrotation Zrotation
      JOINT Head
      {
       OFFSET 0.000000 8.884799 0.017034
       CHANNELS 3 Yrotation Xrotation Zrotation
       End Site
       {
        OFFSET 0.000000 16.896195 0.008993
       }
      }
     }
     JOINT RightCollar
     {
      OFFSET -2.923010 9.499495 0.000000
      CHANNELS 3 Yrotation Xrotation Zrotation
      JOINT RightShoulder
      {
       OFFSET -13.795216 0.000000 0.000000
       CHANNELS 3 Yrotation Xrotation Zrotation
       JOINT RightElbow
       {
        OFFSET -30.272209 0.000000 0.000000
        CHANNELS 3 Yrotation Xrotation Zrotation
        JOINT RightWrist
        {
         OFFSET -24.478199 0.000000 0.000000
         CHANNELS 3 Yrotation Xrotation Zrotation
         End Site
         {
          OFFSET -18.090752 0.000000 0.000000
         }
        }
       }
      }
     }
     JOINT LeftCollar
     {
      OFFSET 2.923010 9.499495 0.000000
      CHANNELS 3 Yrotation Xrotation Zrotation
      JOINT LeftShoulder
      {
       OFFSET 13.795216 0.000000 0.000000
       CHANNELS 3 Yrotation Xrotation Zrotation
       JOINT LeftElbow
       {
        OFFSET 30.272209 0.000000 0.000000
        CHANNELS 3 Yrotation Xrotation Zrotation
        JOINT LeftWrist
        {
         OFFSET 24.478199 0.000000 0.000000
         CHANNELS 3 Yrotation Xrotation Zrotation
         End Site
         {
          OFFSET 18.090752 0.000000 0.000000
         }
        }
       }
      }
     }
    }
   }
  }
 }
 JOINT RightHip
 {
  OFFSET -7.826875 0.019532 0.001973
  CHANNELS 3 Yrotation Xrotation Zrotation
  JOINT RightKnee
  {
   OFFSET 0.000000 -40.546152 -0.001885
   CHANNELS 3 Yrotation Xrotation Zrotation
   JOINT RightAnkle
   {
    OFFSET 0.000000 -39.417092 -0.003189
    CHANNELS 3 Yrotation Xrotation Zrotation
    JOINT RightToe
    {
     OFFSET 0.000000 -7.579396 17.243563
     CHANNELS 3 Yrotation Xrotation Zrotation
     End Site
     {
      OFFSET 0.000000 -1.500329 6.694466
     }
    }
   }
  }
 }
 JOINT LeftHip
 {
  OFFSET 7.826875 0.019532 0.001973
  CHANNELS 3 Yrotation Xrotation Zrotation
  JOINT LeftKnee
  {
   OFFSET 0.000000 -40.546152 -0.001885
   CHANNELS 3 Yrotation Xrotation Zrotation
   JOINT LeftAnkle
   {
    OFFSET 0.000000 -39.417092 -0.003189
    CHANNELS 3 Yrotation Xrotation Zrotation
    JOINT LeftToe
    {
     OFFSET 0.000000 -7.579396 17.243563
     CHANNELS 3 Yrotation Xrotation Zrotation
     End Site
     {
      OFFSET 0.000000 -1.500329 6.694466
     }
    }
   }
  }
 }
}
MOTION
Frames: 7
Frame Time: 0.008333
0.000000 87.345680 0.000000 0.000000 -5.767889 0.000000 0.000000 11.653876 0.000000 0.000000 -5.885988 0.000000 0.000000 -0.000000 0.000000 0.000000 -0.000000 0.000000 0.000000 12.528808 0.000000 0.000000 0.711711 0.000000 0.000000 -0.000000 0.000000 0.000000 -0.000000 0.000000 2.309063 -0.000000 0.000000 -2.309063 -0.000000 -0.000000 0.000000 -0.000000 0.000000 0.000000 0.000000 0.000000 -2.309063 0.000000 0.000000 2.309063 -0.000000 0.000000 0.000000 8.520374 0.000000 0.000000 1.905768 0.000000 -0.000000 -4.658254 0.000000 0.000000 -0.000000 0.000000 0.000000 8.520374 0.000000 0.000000 1.905768 0.000000 -0.000000 -4.658254 0.000000 0.000000 -0.000000 0.000000
-4.081568 90.526061 -80.737913 46.846764 -8.593274 -3.363526 0.795365 5.602582 0.262175 0.446126 3.191006 0.156703 0.559240 3.988559 0.199846 0.446126 3.191006 0.156703 -1.311128 29.022224 -0.257270 -1.390092 6.505089 0.012745 -0.401142 -0.754062 -0.750501 5.563540 -7.754237 86.245926 8.780749 10.020859 5.313299 0.013067 -3.231438 -0.202708 -5.057456 -0.518950 0.527959 11.228566 -3.506019 -85.673744 -3.361180 0.133311 -1.641248 -0.872272 0.671266 2.314594 -5.361114 3.492218 -5.088709 5.884646 25.056768 1.446196 5.905071 -1.434698 8.431618 0.623284 -19.417827 -3.505445 6.499893 10.019534 1.393399 -7.351326 3.444337 -1.967357 -3.396444 -3.312435 -9.008089 -0.007787 0.198606 0.578601
-4.042747 90.526967 -80.757321 46.883730 -8.625399 -3.375221 0.766101 5.598861 0.262570 0.429014 3.189800 0.157709 0.537851 3.987058 0.200953 0.429014 3.189800 0.157709 -1.325233 29.026968 -0.258289 -1.405487 6.511569 0.014801 -0.425390 -0.706654 -0.761289 5.326717 -7.664502 86.249635 8.586382 9.993411 5.148125 0.065813 -3.246828 -0.275440 -5.055975 -0.513917 0.503177 11.161483 -3.575033 -85.689183 -3.323590 0.110028 -1.623681 -0.872807 0.670724 2.309325 -5.377035 3.516948 -5.086569 5.866761 25.069347 1.425416 5.862714 -1.492384 8.444497 0.611496 -19.360793 -3.478528 6.613364 10.024563 1.416143 -7.293005 3.517889 -1.981947 -3.493903 -3.360141 -9.149163 -0.005614 0.179965 0.589421
-3.998271 90.528157 -80.779164 46.917515 -8.656162 -3.388803 0.741120 5.595123 0.262695 0.414542 3.187992 0.158271 0.519758 3.984804 0.201528 0.414542 3.187992 0.158271 -1.344145 29.032668 -0.256453 -1.426850 6.519405 0.021097 -0.451255 -0.664415 -0.773210 5.086222 -7.552460 86.253894 8.423509 9.964180 4.996323 0.117508 -3.256284 -0.356528 -5.057616 -0.510807 0.482269 11.086309 -3.643949 -85.706252 -3.278009 0.088336 -1.601896 -0.872206 0.671063 2.306219 -5.393446 3.534970 -5.088389 5.852107 25.083230 1.408422 5.825051 -1.548033 8.450937 0.598793 -19.302826 -3.443628 6.711513 10.031230 1.430963 -7.230093 3.589861 -1.986417 -3.583074 -3.406897 -9.287520 -0.002146 0.162497 0.593668
-3.949976 90.529796 -80.801180 46.948952 -8.687549 -3.406479 0.719492 5.592245 0.264034 0.402418 3.186247 0.158276 0.504596 3.982628 0.201427 0.402418 3.186247 0.158276 -1.366083 29.040458 -0.251534 -1.452275 6.530066 0.031479 -0.477592 -0.630057 -0.787756 4.843635 -7.414848 86.262828 8.292747 9.931173 4.855826 0.165171 -3.261531 -0.438830 -5.058683 -0.509884 0.465740 10.999622 -3.711196 -85.725151 -3.226021 0.067876 -1.572341 -0.874451 0.670960 2.304669 -5.410852 3.547227 -5.093355 5.846052 25.099996 1.400166 5.796463 -1.593411 8.439691 0.584503 -19.253239 -3.394184 6.793099 10.038542 1.440789 -7.174530 3.665770 -1.979676 -3.655073 -3.456247 -9.426191 0.002909 0.146007 0.593258
-3.899554 90.532005 -80.821350 46.976047 -8.722695 -3.427321 0.702046 5.590574 0.266180 0.393059 3.185073 0.157425 0.492884 3.981166 0.200280 0.393059 3.185073 0.157425 -1.389516 29.051329 -0.243944 -1.479982 6.544826 0.045144 -0.507636 -0.601831 -0.805215 4.603660 -7.257179 86.275833 8.186683 9.893558 4.727051 0.203062 -3.266039 -0.512024 -5.058494 -0.511980 0.452830 10.903624 -3.776550 -85.744507 -3.168522 0.049617 -1.536682 -0.875045 0.673420 2.302324 -5.426474 3.556251 -5.102538 5.847845 25.120599 1.401946 5.780397 -1.623853 8.410368 0.569955 -19.217321 -3.332287 6.864246 10.050302 1.449305 -7.133750 3.743540 -1.966064 -3.710439 -3.506104 -9.555727 0.008731 0.129185 0.582769
-3.848705 90.534755 -80.838587 46.998316 -8.761766 -3.448201 0.689220 5.589836 0.268067 0.386342 3.184554 0.155731 0.484470 3.980522 0.198102 0.386342 3.184554 0.155731 -1.414146 29.065060 -0.235115 -1.509317 6.563391 0.060443 -0.541521 -0.577550 -0.826559 4.364579 -7.087540 86.292111 8.096882 9.855355 4.610952 0.227080 -3.274495 -0.571182 -5.059024 -0.517979 0.442042 10.807217 -3.840668 -85.763601 -3.105992 0.037962 -1.499432 -0.870871 0.674024 2.299052 -5.439305 3.562976 -5.115615 5.853183 25.144611 1.409868 5.767123 -1.637969 8.376723 0.555988 -19.195645 -3.267738 6.928298 10.069336 1.457377 -7.109835 3.816853 -1.951086 -3.751972 -3.551921 -9.664229 0.013972 0.111507 0.556870
